<?xml version="1.0" standalone="no"?>
<!DOCTYPE svg PUBLIC "-//W3C//DTD SVG 20010904//EN"
 "http://www.w3.org/TR/2001/REC-SVG-20010904/DTD/svg10.dtd">
<svg version="1.0" xmlns="http://www.w3.org/2000/svg"
 width="96.000000pt" height="96.000000pt" viewBox="0 0 96.000000 96.000000"
 preserveAspectRatio="xMidYMid meet">

<g transform="translate(0.000000,96.000000) scale(0.100000,-0.100000)"
fill="#000000" stroke="none">
<path d="M0 480 l0 -480 480 0 480 0 0 480 0 480 -480 0 -480 0 0 -480z m606
254 c76 -45 116 -74 120 -88 2 -12 3 -77 2 -146 l-3 -125 -67 -40 c-37 -22
-91 -53 -122 -70 -54 -29 -55 -29 -90 -12 l-36 17 0 -44 c0 -68 -18 -75 -87
-36 -100 56 -93 37 -93 259 0 108 4 202 8 209 10 15 222 141 240 141 7 1 65
-29 128 -65z"/>
<path d="M368 707 l-108 -62 0 -191 c0 -142 3 -194 13 -201 6 -5 33 -22 60
-37 l47 -27 0 49 c0 46 -2 51 -40 76 l-40 26 0 143 0 142 81 48 c45 26 89 47
99 47 10 0 54 -21 99 -47 101 -59 106 -83 23 -111 -27 -9 -40 -8 -78 8 -44 19
-47 19 -75 3 -24 -14 -29 -24 -29 -55 0 -32 5 -40 31 -53 28 -15 34 -15 74 0
39 15 48 16 87 3 34 -12 43 -20 43 -37 0 -17 -19 -33 -87 -72 -85 -50 -87 -50
-117 -35 -38 20 -41 20 -41 -1 0 -17 49 -53 71 -53 5 0 57 28 115 61 l105 62
-3 126 -3 126 -105 62 c-58 35 -107 63 -110 63 -3 0 -53 -28 -112 -63z"/>
<path d="M400 651 l-65 -39 -5 -127 c-5 -119 -4 -128 15 -141 27 -20 35 -18
35 9 0 37 10 39 56 12 l44 -26 76 45 77 45 -29 12 c-23 9 -39 7 -78 -7 -48
-17 -49 -17 -93 7 l-44 24 3 55 c3 53 4 55 47 79 l43 24 42 -20 c35 -17 46
-18 75 -8 l34 11 -71 42 c-39 23 -76 42 -84 42 -7 -1 -42 -18 -78 -39z"/>
</g>
</svg>
